<svg width="249" height="48" viewBox="0 0 249 48" fill="none" xmlns="http://www.w3.org/2000/svg">
<path d="M19.6773 0C32.4882 0 42.3275 8.81295 42.3275 21.891C42.3275 35.0394 32.4889 43.995 19.6773 43.995H5.30901C2.40719 43.995 0 42.0761 0 38.7356V5.47242C0 2.1319 2.40656 0 5.30901 0H19.6773Z" fill="#FF6900"/>
<path d="M6.89799 43.9994C10.5735 41.9643 12.3968 40.0995 13.6601 38.3491C16.1214 39.4458 18.4902 39.9172 20.6246 39.9172C24.6257 39.9172 28.0366 38.0744 29.8147 34.7867C31.6449 33.6881 32.8585 31.4298 32.9346 29.8164C34.0747 28.3822 34.2852 26.5721 33.9352 25.3503C33.8516 25.0586 33.6146 25.0505 33.2048 25.3C29.5991 27.4614 26.1077 28.4916 22.7754 28.4916C20.7547 28.4916 18.6825 28.1704 16.4777 27.5324C16.3206 25.1686 15.8348 23.1876 15.6544 21.9865C15.3967 20.4001 15.7631 19.2267 17.5041 19.2267C18.7812 19.2267 21.1444 19.551 23.0324 20.4096C24.9029 21.2599 26.0153 22.9343 26.7928 22.9343C27.1083 22.9343 27.4408 22.7382 27.4408 22.0701C27.4408 20.7163 26.9581 18.5366 26.3579 17.7604C28.1076 17.6605 29.4979 17.6781 30.2798 17.7667C31.9089 18.0501 31.9855 18.8678 32.3067 19.4008C32.6272 19.9338 33.1715 20.1663 33.8258 20.1663C35.0376 20.1663 35.793 19.5416 35.793 17.2852C35.793 12.3295 32.665 9.92792 29.3835 9.92792C26.6897 9.92792 25.6495 10.5206 23.0915 10.5206C21.277 10.5206 19.7736 6.82874 17.7115 6.34291C16.8008 4.31722 14.7581 4.08845 13.4998 5.10663C12.3572 4.4115 10.571 4.78609 10.4975 6.06951C9.18324 5.66286 7.48564 6.37182 8.21723 8.09896C5.00366 8.19009 4.40407 11.0316 6.58436 11.349C3.77744 12.9378 5.06023 15.6813 7.41588 15.098C7.5818 17.047 8.37184 20.1933 8.37184 22.3667C8.37184 25.3886 7.00106 26.09 5.12748 26.09C3.64671 26.09 1.47333 25.552 0.000732422 25.1322V27.2389C1.49093 27.6098 3.7259 28.0849 5.40276 28.0849C8.35613 28.0849 9.99465 26.3521 9.99465 23.0524C9.99465 19.0004 8.69804 15.3168 9.12354 13.0089L9.01983 12.875C7.54409 14.4148 6.58499 14.0076 6.48003 13.5117C6.26948 12.5186 7.99725 11.3037 8.98401 10.8814C9.00286 10.8166 9.028 10.7488 9.05503 10.6802C8.13175 10.8229 7.04694 10.706 7.00923 10.0448C6.96461 9.26107 8.53714 8.56154 10.5924 8.73564C10.6313 8.70296 10.6716 8.67027 10.7111 8.63696C10.5817 8.58543 10.444 8.52069 10.2706 8.43144C9.73947 8.15804 9.61 7.703 9.7841 7.37303C9.97454 7.01038 10.5553 6.86834 11.0273 6.8784C11.767 6.89411 12.3962 7.07323 12.8562 7.2599C12.9084 7.2379 12.9606 7.21591 13.0102 7.19705C12.8393 7.06381 12.691 6.91799 12.6042 6.76966C12.4773 6.55157 12.4458 6.25177 12.6922 6.05756C12.9794 5.83067 13.7091 5.75022 14.3684 6.34919C14.5048 6.47301 14.6205 6.59243 14.7248 6.70807C14.7983 6.69424 14.8719 6.67979 14.9467 6.66785C14.8379 6.50004 14.7512 6.32468 14.7229 6.16253C14.6846 5.94003 14.7569 5.70057 15.0183 5.61635C15.3037 5.52396 15.6644 5.6704 15.8523 5.9482C16.0535 6.24612 16.176 6.61191 16.2533 6.87274C14.7996 7.04181 10.9437 7.92235 10.9437 12.5827C10.9437 17.1275 14.7191 21.901 14.7191 28.9447C14.7129 31.504 14.1485 34.0714 11.828 37.0625C10.0361 39.3723 7.18962 41.601 2.75109 43.4306C3.51284 43.8039 4.38584 44 5.30975 44H6.89799V43.9994ZM24.6628 15.4035C25.1065 14.0798 25.493 13.0811 26.2133 12.3194C26.9726 11.5168 27.816 11.2666 29.667 11.2666C32.2231 11.2666 34.3588 13.8504 34.3588 17.4631C34.3588 17.9999 33.6385 17.9961 33.4072 17.5052C32.5374 15.9698 31.3595 15.7492 29.5048 15.6128C28.1359 15.5323 26.4842 15.6486 24.9802 15.7127C24.6986 15.7265 24.62 15.5304 24.6628 15.4035ZM16.5079 29.8975C18.5304 30.4594 21.3267 30.7592 23.6459 30.5964C27.723 30.3105 30.7832 28.7926 32.5059 27.6871C31.4714 30.301 27.5891 31.9251 23.825 32.3845C23.8005 32.575 23.7722 32.7604 23.7382 32.9401C26.5615 32.7899 29.2427 31.8723 30.4583 31.0345C29.7631 33.6057 26.3101 34.639 23.1745 34.7879C23.0859 34.9897 22.9928 35.1808 22.896 35.3611C24.7219 35.3938 26.4697 35.0551 27.5118 34.727C26.5741 36.5163 23.3398 37.9299 20.0451 37.9299C18.4255 37.9299 16.4054 37.6143 14.6519 36.7797C15.919 34.4624 16.4073 32.0872 16.5079 29.8975Z" fill="black"/>
<path d="M0 33.6648C1.54487 33.3581 3.06524 33.0734 3.06524 33.0734L3.25882 32.2406C2.56117 32.2054 1.17908 32.2217 0 32.2532V33.6648Z" fill="black"/>
<path d="M16.6505 8.79347C17.1904 8.61183 17.966 9.14418 18.3808 9.97883C18.7956 10.8135 18.6932 11.6406 18.1545 11.8185C17.6197 12.0077 16.8472 11.4753 16.4299 10.6369C16.3733 10.5238 16.3294 10.4112 16.2916 10.3006L16.3859 10.2742C16.5588 10.4383 16.7655 10.4835 16.9032 10.3949C17.093 10.2705 17.0729 9.93924 16.9132 9.65327C16.7988 9.41946 16.5342 9.17372 16.3149 9.19257L16.2766 9.14292C16.3576 8.97574 16.4821 8.85192 16.6505 8.79347ZM20.4335 17.1903C18.0169 16.6593 15.3709 15.9578 13.9605 13.8838C13.9341 13.8454 13.8863 13.8278 13.8411 13.8404C13.7965 13.853 13.7644 13.8938 13.7625 13.9403C13.7575 14.0535 13.7726 14.1773 13.7977 14.3011L13.606 14.3734C13.2339 13.8498 13.1585 13.2131 13.5268 12.7562C14.0579 12.0982 15.1352 12.166 15.7781 12.5714L15.6964 12.7487C15.3514 12.6909 15.0227 12.6908 14.7662 12.8467C14.5482 12.9793 14.518 13.1761 14.6525 13.4262C15.824 15.604 19.2299 16.076 23.2775 15.7611C23.6955 15.7284 23.7916 15.5399 23.8457 15.3388C24.197 13.9366 24.8343 12.6871 25.7834 11.7336C25.0455 11.8373 24.3592 11.8606 23.7602 11.8933C21.6698 12.0253 20.4744 11.7506 20.101 11.4527L20.1695 11.271C20.392 11.3477 20.6227 11.3647 20.6705 11.3C20.7358 11.2113 20.6855 11.156 20.5837 11.0668C20.1871 10.6947 18.4034 8.867 18.4072 8.87769C18.2142 7.33156 15.9636 7.27625 15.0667 8.79661L14.7619 8.71491C14.8505 8.38117 14.9837 8.10965 15.1082 7.91167C13.2283 8.33654 12.1592 10.0228 11.9656 11.6532C11.1322 18.6573 21.7559 17.0389 24.7916 19.8439C24.8494 19.8892 24.9933 20.0947 25.0977 19.9646C25.2152 19.5831 23.8777 17.9521 20.4335 17.1903Z" fill="white"/>
<path d="M32.5034 27.6833C30.7813 28.7876 27.718 30.3079 23.6433 30.5939C21.3254 30.7567 18.526 30.455 16.5047 29.8938C16.4739 30.5675 16.4054 31.2639 16.2898 31.9659C17.4287 32.2588 19.4575 32.6454 22.3838 32.7277C22.2537 33.5146 21.4543 36.1851 19.4097 37.9116C23.1374 38.0681 26.5156 36.6182 27.5087 34.7232C26.4672 35.0513 24.7175 35.3901 22.8929 35.3574C22.9897 35.177 23.0827 34.9866 23.1713 34.7842C26.3045 34.6359 29.7606 33.6001 30.4558 31.0307C29.2408 31.8679 26.5571 32.7862 23.7357 32.9364C23.7697 32.7572 23.798 32.5712 23.8225 32.3808C27.5841 31.9213 31.4689 30.2954 32.5034 27.6833Z" fill="white"/>
<path d="M248.371 17.9822L242.523 5.2279C241.855 3.83528 240.964 3.22275 239.627 3.22275H239.405C238.012 3.22275 237.121 3.83528 236.453 5.2279L230.605 17.9822C230.048 19.263 230.438 20.3772 231.607 20.8226C232.665 21.2124 233.668 20.9897 234.281 19.7646L235.617 16.9799C236.787 17.3697 238.291 17.5924 239.628 17.5924C241.076 17.5924 242.413 17.3697 243.471 16.9799L244.752 19.7646C245.309 20.9897 246.423 21.2129 247.425 20.8226C248.483 20.3772 248.928 19.2078 248.371 17.9822ZM239.515 13.7492C238.624 13.7492 237.677 13.6378 236.953 13.4151L239.46 7.84559L241.966 13.4151C241.242 13.6378 240.407 13.7492 239.515 13.7492Z" fill="black"/>
<path d="M227.319 16.8128H226.205V5.11652C226.205 3.77958 225.202 3 224.033 3C222.863 3 221.916 3.77958 221.916 5.11652V16.8128H214.453V5.11652C214.453 3.77958 213.506 3 212.281 3C211.055 3 210.108 3.77958 210.108 5.11652V18.8732C210.108 20.0425 210.888 20.9897 212.225 20.9897H225.202V22.8835C225.202 24.2204 226.149 25 227.319 25C228.544 25 229.435 24.2204 229.435 22.8835V18.9289C229.435 17.5367 228.599 16.8128 227.319 16.8128Z" fill="black"/>
<path d="M205.708 16.8128H204.595V5.11652C204.595 3.77958 203.592 3 202.422 3C201.253 3 200.306 3.77958 200.306 5.11652V16.8128H192.843V5.11652C192.843 3.77958 191.896 3 190.67 3C189.445 3 188.498 3.77958 188.498 5.11652V18.8732C188.498 20.0425 189.278 20.9897 190.615 20.9897H203.592V22.8835C203.592 24.2204 204.539 25 205.708 25C206.933 25 207.825 24.2204 207.825 22.8835V18.9289C207.825 17.5367 206.99 16.8128 205.708 16.8128Z" fill="black"/>
<path d="M181.703 3.16705H181.536C180.255 3.16705 179.42 3.77958 178.529 5.06084L171.511 15.0304V5.11653C171.511 3.77958 170.62 3 169.45 3C168.225 3 167.333 3.77958 167.333 5.11653V18.5391C167.333 19.9874 168.28 20.934 169.728 20.934H169.951C171.288 20.934 172.179 20.2658 173.014 19.0402L180.032 9.07064V19.0402C180.032 20.3772 180.923 21.1567 182.093 21.1567C183.263 21.1567 184.154 20.3772 184.154 19.0402V5.562C184.154 4.1142 183.263 3.16705 181.703 3.16705Z" fill="black"/>
<path d="M160.762 3.16705H148.731C147.339 3.16705 146.615 4.11369 146.615 5.28358V19.0402C146.615 20.3772 147.617 21.1567 148.787 21.1567C149.956 21.1567 150.903 20.3772 150.903 19.0402V7.34442H158.589V19.0407C158.589 20.3777 159.536 21.1573 160.762 21.1573C161.931 21.1573 162.934 20.3777 162.934 18.985V5.22789C162.934 4.1142 162.154 3.16705 160.762 3.16705Z" fill="black"/>
<path d="M129.628 3C124.448 3 120.494 6.89894 120.494 12.0786C120.494 17.314 124.448 21.1573 129.628 21.1573C134.752 21.1573 138.762 17.2026 138.762 12.0229C138.706 6.78757 134.752 3 129.628 3ZM129.628 17.0356C126.788 17.0356 124.782 14.9191 124.782 12.0229C124.782 9.18252 126.843 7.066 129.628 7.066C132.468 7.066 134.474 9.18252 134.474 12.0229C134.474 14.9191 132.524 17.0356 129.628 17.0356Z" fill="black"/>
<path d="M117.486 16.7571H116.373V5.22788C116.373 4.05851 115.593 3.11136 114.256 3.11136H104.398C103.228 3.11136 102.448 3.89094 102.448 5.22788V8.01262C102.448 10.0178 102.393 11.5769 102.059 13.248C101.725 14.8634 101.279 15.9214 100.666 16.7566H100.165C98.7722 16.7566 98.104 17.6476 98.104 18.8732V22.8278C98.104 24.1647 99.0506 24.9443 100.221 24.9443C101.446 24.9443 102.337 24.1647 102.337 22.8278V20.934H115.314V22.8278C115.314 24.1647 116.261 24.9443 117.431 24.9443C118.656 24.9443 119.547 24.1647 119.547 22.8278V18.8732C119.603 17.6481 118.934 16.7571 117.486 16.7571ZM112.084 16.7571H105.066C105.512 15.8105 105.846 14.9747 106.124 13.7497C106.403 12.4127 106.514 11.0763 106.57 9.34956L106.625 7.28872H112.083V16.7571H112.084Z" fill="black"/>
<path d="M88.5799 3C83.4002 3 79.4456 6.89894 79.4456 12.0786C79.4456 17.314 83.4002 21.1573 88.5799 21.1573C93.7039 21.1573 97.7142 17.2026 97.7142 12.0229C97.7142 6.78757 93.7596 3 88.5799 3ZM88.5799 17.0356C85.7394 17.0356 83.7343 14.9191 83.7343 12.0229C83.7343 9.18252 85.7951 7.066 88.5799 7.066C91.4203 7.066 93.4255 9.18252 93.4255 12.0229C93.4255 14.9191 91.5322 17.0356 88.5799 17.0356Z" fill="black"/>
<path d="M76.3266 16.7571H75.2129V5.22788C75.2129 4.05851 74.4334 3.11136 73.0964 3.11136H63.2382C62.0688 3.11136 61.2887 3.89094 61.2887 5.22788V8.01262C61.2887 10.0178 61.2887 11.5769 60.8989 13.248C60.5648 14.8634 60.1194 15.9214 59.5063 16.7566H59.0608C57.6682 16.7566 57 17.6476 57 18.8732V22.8278C57 24.1647 57.9466 24.9443 59.1165 24.9443C60.3416 24.9443 61.233 24.1647 61.233 22.8278V20.934H74.2106V22.8278C74.2106 24.1647 75.1573 24.9443 76.3271 24.9443C77.5522 24.9443 78.4437 24.1647 78.4437 22.8278V18.8732C78.4432 17.6481 77.7749 16.7571 76.3266 16.7571ZM70.9242 16.7571H63.9064C64.3519 15.8105 64.686 14.9747 64.9644 13.7497C65.2428 12.4127 65.3542 11.0763 65.4099 9.34956L65.4656 7.28872H70.9237L70.9242 16.7571Z" fill="black"/>
<path d="M61.704 44.108C60.872 44.108 60.16 43.932 59.568 43.58C58.976 43.228 58.52 42.728 58.2 42.08C57.888 41.432 57.732 40.66 57.732 39.764C57.732 38.876 57.888 38.108 58.2 37.46C58.52 36.812 58.976 36.312 59.568 35.96C60.16 35.608 60.872 35.432 61.704 35.432C62.2 35.432 62.672 35.504 63.12 35.648C63.568 35.792 63.956 35.996 64.284 36.26C64.42 36.356 64.496 36.468 64.512 36.596C64.536 36.724 64.516 36.84 64.452 36.944C64.388 37.04 64.296 37.104 64.176 37.136C64.064 37.16 63.936 37.12 63.792 37.016C63.224 36.56 62.536 36.332 61.728 36.332C60.776 36.332 60.048 36.632 59.544 37.232C59.04 37.832 58.788 38.676 58.788 39.764C58.788 40.86 59.04 41.708 59.544 42.308C60.048 42.908 60.776 43.208 61.728 43.208C62.536 43.208 63.232 42.976 63.816 42.512C63.96 42.416 64.088 42.38 64.2 42.404C64.32 42.428 64.408 42.488 64.464 42.584C64.528 42.68 64.552 42.788 64.536 42.908C64.52 43.028 64.452 43.136 64.332 43.232C63.988 43.52 63.592 43.74 63.144 43.892C62.696 44.036 62.216 44.108 61.704 44.108ZM68.557 44.108C67.637 44.108 66.909 43.84 66.373 43.304C65.837 42.76 65.569 42.024 65.569 41.096C65.569 40.496 65.689 39.968 65.929 39.512C66.169 39.048 66.497 38.692 66.913 38.444C67.337 38.188 67.825 38.06 68.377 38.06C69.169 38.06 69.789 38.316 70.237 38.828C70.685 39.332 70.909 40.028 70.909 40.916C70.909 41.164 70.769 41.288 70.489 41.288H66.517C66.549 41.952 66.741 42.46 67.093 42.812C67.445 43.156 67.933 43.328 68.557 43.328C68.821 43.328 69.089 43.296 69.361 43.232C69.633 43.16 69.897 43.036 70.153 42.86C70.337 42.74 70.489 42.716 70.609 42.788C70.737 42.86 70.801 42.972 70.801 43.124C70.809 43.268 70.729 43.396 70.561 43.508C70.297 43.7 69.981 43.848 69.613 43.952C69.253 44.056 68.901 44.108 68.557 44.108ZM68.401 38.78C67.849 38.78 67.413 38.952 67.093 39.296C66.773 39.64 66.585 40.092 66.529 40.652H70.069C70.045 40.06 69.889 39.6 69.601 39.272C69.321 38.944 68.921 38.78 68.401 38.78ZM74.1249 44.084C73.7969 44.084 73.6329 43.916 73.6329 43.58V38.948H71.8809C71.5769 38.948 71.4249 38.816 71.4249 38.552C71.4249 38.296 71.5769 38.168 71.8809 38.168H76.3689C76.6649 38.168 76.8129 38.296 76.8129 38.552C76.8129 38.816 76.6649 38.948 76.3689 38.948H74.6049V43.58C74.6049 43.916 74.4449 44.084 74.1249 44.084ZM78.257 44C77.921 44 77.753 43.832 77.753 43.496V38.576C77.753 38.248 77.917 38.084 78.245 38.084C78.565 38.084 78.725 38.248 78.725 38.576V40.244H80.489C81.233 40.244 81.797 40.408 82.181 40.736C82.565 41.056 82.757 41.512 82.757 42.104C82.757 42.688 82.557 43.152 82.157 43.496C81.765 43.832 81.209 44 80.489 44H78.257ZM78.725 43.304H80.393C80.841 43.304 81.189 43.208 81.437 43.016C81.693 42.824 81.821 42.524 81.821 42.116C81.821 41.716 81.697 41.42 81.449 41.228C81.201 41.036 80.849 40.94 80.393 40.94H78.725V43.304ZM87.784 44.084C87.456 44.084 87.292 43.916 87.292 43.58V38.72C87.292 38.352 87.476 38.168 87.844 38.168H91.828C92.196 38.168 92.38 38.352 92.38 38.72V43.58C92.38 43.916 92.216 44.084 91.888 44.084C91.568 44.084 91.408 43.916 91.408 43.58V38.948H88.264V43.58C88.264 43.916 88.104 44.084 87.784 44.084ZM94.7438 44.084C94.4478 44.084 94.2998 43.908 94.2998 43.556V38.564C94.2998 38.244 94.4478 38.084 94.7438 38.084C95.0398 38.084 95.1878 38.244 95.1878 38.564V42.68L98.3798 38.396C98.4438 38.308 98.5158 38.236 98.5958 38.18C98.6838 38.116 98.7998 38.084 98.9438 38.084C99.2398 38.084 99.3878 38.256 99.3878 38.6V43.604C99.3878 43.924 99.2398 44.084 98.9438 44.084C98.6478 44.084 98.4998 43.924 98.4998 43.604V39.488L95.2958 43.772C95.2398 43.852 95.1678 43.924 95.0798 43.988C94.9998 44.052 94.8878 44.084 94.7438 44.084ZM106.768 45.644C106.488 45.644 106.348 45.496 106.348 45.2V44H101.812C101.476 44 101.308 43.832 101.308 43.496V38.576C101.308 38.248 101.472 38.084 101.8 38.084C102.12 38.084 102.28 38.248 102.28 38.576V43.22H105.292V38.576C105.292 38.248 105.456 38.084 105.784 38.084C106.104 38.084 106.264 38.248 106.264 38.576V43.22H106.696C107.024 43.22 107.188 43.38 107.188 43.7V45.2C107.188 45.496 107.048 45.644 106.768 45.644ZM113.94 45.644C113.66 45.644 113.52 45.496 113.52 45.2V44H108.984C108.648 44 108.48 43.832 108.48 43.496V38.576C108.48 38.248 108.644 38.084 108.972 38.084C109.292 38.084 109.452 38.248 109.452 38.576V43.22H112.464V38.576C112.464 38.248 112.628 38.084 112.956 38.084C113.276 38.084 113.436 38.248 113.436 38.576V43.22H113.868C114.196 43.22 114.36 43.38 114.36 43.7V45.2C114.36 45.496 114.22 45.644 113.94 45.644ZM118.291 44.108C117.371 44.108 116.643 43.84 116.107 43.304C115.571 42.76 115.303 42.024 115.303 41.096C115.303 40.496 115.423 39.968 115.663 39.512C115.903 39.048 116.231 38.692 116.647 38.444C117.071 38.188 117.559 38.06 118.111 38.06C118.903 38.06 119.523 38.316 119.971 38.828C120.419 39.332 120.643 40.028 120.643 40.916C120.643 41.164 120.503 41.288 120.223 41.288H116.251C116.283 41.952 116.475 42.46 116.827 42.812C117.179 43.156 117.667 43.328 118.291 43.328C118.555 43.328 118.823 43.296 119.095 43.232C119.367 43.16 119.631 43.036 119.887 42.86C120.071 42.74 120.223 42.716 120.343 42.788C120.471 42.86 120.535 42.972 120.535 43.124C120.543 43.268 120.463 43.396 120.295 43.508C120.031 43.7 119.715 43.848 119.347 43.952C118.987 44.056 118.635 44.108 118.291 44.108ZM118.135 38.78C117.583 38.78 117.147 38.952 116.827 39.296C116.507 39.64 116.319 40.092 116.263 40.652H119.803C119.779 40.06 119.623 39.6 119.335 39.272C119.055 38.944 118.655 38.78 118.135 38.78ZM122.647 46.244C122.327 46.244 122.167 46.08 122.167 45.752V38.576C122.167 38.248 122.323 38.084 122.635 38.084C122.963 38.084 123.127 38.248 123.127 38.576V39.2C123.295 38.848 123.555 38.572 123.907 38.372C124.259 38.164 124.663 38.06 125.119 38.06C125.639 38.06 126.091 38.184 126.475 38.432C126.867 38.672 127.167 39.02 127.375 39.476C127.591 39.924 127.699 40.46 127.699 41.084C127.699 41.7 127.591 42.236 127.375 42.692C127.167 43.14 126.867 43.488 126.475 43.736C126.091 43.984 125.639 44.108 125.119 44.108C124.671 44.108 124.271 44.008 123.919 43.808C123.567 43.608 123.307 43.332 123.139 42.98V45.752C123.139 46.08 122.975 46.244 122.647 46.244ZM124.915 43.328C125.459 43.328 125.895 43.136 126.223 42.752C126.551 42.36 126.715 41.804 126.715 41.084C126.715 40.356 126.551 39.8 126.223 39.416C125.895 39.032 125.459 38.84 124.915 38.84C124.371 38.84 123.935 39.032 123.607 39.416C123.279 39.8 123.115 40.356 123.115 41.084C123.115 41.804 123.279 42.36 123.607 42.752C123.935 43.136 124.371 43.328 124.915 43.328ZM129.713 44.084C129.417 44.084 129.269 43.908 129.269 43.556V38.564C129.269 38.244 129.417 38.084 129.713 38.084C130.009 38.084 130.157 38.244 130.157 38.564V42.68L133.349 38.396C133.413 38.308 133.485 38.236 133.565 38.18C133.653 38.116 133.769 38.084 133.913 38.084C134.209 38.084 134.357 38.256 134.357 38.6V43.604C134.357 43.924 134.209 44.084 133.913 44.084C133.617 44.084 133.469 43.924 133.469 43.604V39.488L130.265 43.772C130.209 43.852 130.137 43.924 130.049 43.988C129.969 44.052 129.857 44.084 129.713 44.084ZM136.72 44.084C136.424 44.084 136.276 43.908 136.276 43.556V38.564C136.276 38.244 136.424 38.084 136.72 38.084C137.016 38.084 137.164 38.244 137.164 38.564V42.68L140.356 38.396C140.42 38.308 140.492 38.236 140.572 38.18C140.66 38.116 140.776 38.084 140.92 38.084C141.216 38.084 141.364 38.256 141.364 38.6V43.604C141.364 43.924 141.216 44.084 140.92 44.084C140.624 44.084 140.476 43.924 140.476 43.604V39.488L137.272 43.772C137.216 43.852 137.144 43.924 137.056 43.988C136.976 44.052 136.864 44.084 136.72 44.084ZM138.82 37.412C138.396 37.412 138.004 37.304 137.644 37.088C137.292 36.872 137.028 36.544 136.852 36.104C136.772 35.872 136.828 35.72 137.02 35.648C137.196 35.584 137.336 35.66 137.44 35.876C137.72 36.492 138.18 36.8 138.82 36.8C139.46 36.8 139.92 36.492 140.2 35.876C140.304 35.66 140.444 35.584 140.62 35.648C140.708 35.68 140.768 35.736 140.8 35.816C140.832 35.896 140.824 35.992 140.776 36.104C140.584 36.552 140.316 36.884 139.972 37.1C139.628 37.308 139.244 37.412 138.82 37.412ZM156.314 39.068C155.81 39.068 155.39 38.904 155.054 38.576C154.718 38.24 154.55 37.796 154.55 37.244C154.55 36.692 154.718 36.252 155.054 35.924C155.39 35.596 155.81 35.432 156.314 35.432C156.818 35.432 157.234 35.596 157.562 35.924C157.898 36.252 158.066 36.692 158.066 37.244C158.066 37.796 157.898 38.24 157.562 38.576C157.234 38.904 156.818 39.068 156.314 39.068ZM146.93 44.084C146.618 44.084 146.462 43.92 146.462 43.592V35.96C146.462 35.624 146.606 35.456 146.894 35.456C147.014 35.456 147.106 35.48 147.17 35.528C147.234 35.568 147.306 35.644 147.386 35.756L152.33 42.344V35.936C152.33 35.616 152.486 35.456 152.798 35.456C153.094 35.456 153.242 35.616 153.242 35.936V43.604C153.242 43.924 153.11 44.084 152.846 44.084C152.726 44.084 152.63 44.06 152.558 44.012C152.486 43.964 152.41 43.888 152.33 43.784L147.386 37.172V43.592C147.386 43.92 147.234 44.084 146.93 44.084ZM156.314 38.516C156.642 38.516 156.898 38.408 157.082 38.192C157.274 37.968 157.37 37.652 157.37 37.244C157.37 36.836 157.274 36.524 157.082 36.308C156.898 36.092 156.642 35.984 156.314 35.984C155.986 35.984 155.726 36.092 155.534 36.308C155.342 36.516 155.246 36.828 155.246 37.244C155.246 37.66 155.342 37.976 155.534 38.192C155.726 38.408 155.986 38.516 156.314 38.516ZM154.922 40.868C154.682 40.868 154.562 40.756 154.562 40.532C154.562 40.308 154.682 40.196 154.922 40.196H157.718C157.95 40.196 158.066 40.308 158.066 40.532C158.066 40.756 157.95 40.868 157.718 40.868H154.922ZM160.227 44C159.923 44 159.771 43.856 159.771 43.568C159.771 43.296 159.923 43.16 160.227 43.16H161.787V36.692L160.563 37.508C160.435 37.588 160.315 37.612 160.203 37.58C160.099 37.54 160.019 37.472 159.963 37.376C159.907 37.28 159.887 37.176 159.903 37.064C159.927 36.952 160.003 36.852 160.131 36.764L161.787 35.672C161.891 35.608 161.991 35.556 162.087 35.516C162.183 35.476 162.279 35.456 162.375 35.456C162.487 35.456 162.579 35.492 162.651 35.564C162.731 35.628 162.771 35.732 162.771 35.876V43.16H164.211C164.515 43.16 164.667 43.296 164.667 43.568C164.667 43.856 164.515 44 164.211 44H160.227ZM170.12 44C169.784 44 169.616 43.832 169.616 43.496V38.672C169.616 38.336 169.784 38.168 170.12 38.168H172.46C173.148 38.168 173.656 38.3 173.984 38.564C174.312 38.82 174.476 39.2 174.476 39.704C174.476 40.008 174.388 40.272 174.212 40.496C174.044 40.72 173.812 40.884 173.516 40.988C173.876 41.076 174.156 41.244 174.356 41.492C174.564 41.74 174.668 42.04 174.668 42.392C174.668 42.888 174.484 43.28 174.116 43.568C173.748 43.856 173.228 44 172.556 44H170.12ZM170.54 40.7H172.412C172.78 40.7 173.064 40.62 173.264 40.46C173.464 40.292 173.564 40.056 173.564 39.752C173.564 39.456 173.464 39.228 173.264 39.068C173.064 38.908 172.78 38.828 172.412 38.828H170.54V40.7ZM170.54 43.34H172.52C172.92 43.34 173.224 43.256 173.432 43.088C173.64 42.92 173.744 42.672 173.744 42.344C173.744 42.024 173.64 41.78 173.432 41.612C173.224 41.444 172.92 41.36 172.52 41.36H170.54V43.34ZM179.849 44.084C179.521 44.084 179.357 43.912 179.357 43.568V36.044C179.357 35.708 179.525 35.54 179.861 35.54H182.705C183.617 35.54 184.313 35.76 184.793 36.2C185.281 36.64 185.525 37.268 185.525 38.084C185.525 38.892 185.281 39.52 184.793 39.968C184.313 40.408 183.617 40.628 182.705 40.628H180.341V43.568C180.341 43.912 180.177 44.084 179.849 44.084ZM180.341 39.8H182.585C183.897 39.8 184.553 39.228 184.553 38.084C184.553 36.932 183.897 36.356 182.585 36.356H180.341V39.8ZM189.115 44.108C188.547 44.108 188.055 43.984 187.639 43.736C187.223 43.488 186.899 43.14 186.667 42.692C186.443 42.236 186.331 41.7 186.331 41.084C186.331 40.468 186.443 39.936 186.667 39.488C186.899 39.032 187.223 38.68 187.639 38.432C188.055 38.184 188.547 38.06 189.115 38.06C189.675 38.06 190.163 38.184 190.579 38.432C191.003 38.68 191.327 39.032 191.551 39.488C191.783 39.936 191.899 40.468 191.899 41.084C191.899 41.7 191.783 42.236 191.551 42.692C191.327 43.14 191.003 43.488 190.579 43.736C190.163 43.984 189.675 44.108 189.115 44.108ZM189.115 43.328C189.659 43.328 190.095 43.136 190.423 42.752C190.751 42.36 190.915 41.804 190.915 41.084C190.915 40.356 190.751 39.8 190.423 39.416C190.095 39.032 189.659 38.84 189.115 38.84C188.563 38.84 188.123 39.032 187.795 39.416C187.475 39.8 187.315 40.356 187.315 41.084C187.315 41.804 187.475 42.36 187.795 42.752C188.123 43.136 188.563 43.328 189.115 43.328ZM195.96 44.108C195.376 44.108 194.872 43.984 194.448 43.736C194.024 43.48 193.696 43.124 193.464 42.668C193.24 42.204 193.128 41.664 193.128 41.048C193.128 40.12 193.38 39.392 193.884 38.864C194.388 38.328 195.08 38.06 195.96 38.06C196.248 38.06 196.548 38.108 196.86 38.204C197.172 38.292 197.456 38.44 197.712 38.648C197.848 38.744 197.904 38.864 197.88 39.008C197.864 39.152 197.796 39.26 197.676 39.332C197.564 39.404 197.432 39.388 197.28 39.284C197.064 39.124 196.848 39.012 196.632 38.948C196.424 38.884 196.22 38.852 196.02 38.852C195.412 38.852 194.944 39.044 194.616 39.428C194.288 39.804 194.124 40.348 194.124 41.06C194.124 41.756 194.288 42.308 194.616 42.716C194.944 43.116 195.412 43.316 196.02 43.316C196.22 43.316 196.424 43.284 196.632 43.22C196.848 43.156 197.064 43.044 197.28 42.884C197.432 42.78 197.564 42.768 197.676 42.848C197.788 42.92 197.848 43.028 197.856 43.172C197.872 43.316 197.816 43.432 197.688 43.52C197.432 43.728 197.152 43.88 196.848 43.976C196.544 44.064 196.248 44.108 195.96 44.108ZM201.632 44.108C201.048 44.108 200.544 43.984 200.12 43.736C199.696 43.48 199.368 43.124 199.136 42.668C198.912 42.204 198.8 41.664 198.8 41.048C198.8 40.12 199.052 39.392 199.556 38.864C200.06 38.328 200.752 38.06 201.632 38.06C201.92 38.06 202.22 38.108 202.532 38.204C202.844 38.292 203.128 38.44 203.384 38.648C203.52 38.744 203.576 38.864 203.552 39.008C203.536 39.152 203.468 39.26 203.348 39.332C203.236 39.404 203.104 39.388 202.952 39.284C202.736 39.124 202.52 39.012 202.304 38.948C202.096 38.884 201.892 38.852 201.692 38.852C201.084 38.852 200.616 39.044 200.288 39.428C199.96 39.804 199.796 40.348 199.796 41.06C199.796 41.756 199.96 42.308 200.288 42.716C200.616 43.116 201.084 43.316 201.692 43.316C201.892 43.316 202.096 43.284 202.304 43.22C202.52 43.156 202.736 43.044 202.952 42.884C203.104 42.78 203.236 42.768 203.348 42.848C203.46 42.92 203.52 43.028 203.528 43.172C203.544 43.316 203.488 43.432 203.36 43.52C203.104 43.728 202.824 43.88 202.52 43.976C202.216 44.064 201.92 44.108 201.632 44.108ZM205.263 44.084C204.967 44.084 204.819 43.908 204.819 43.556V38.564C204.819 38.244 204.967 38.084 205.263 38.084C205.559 38.084 205.707 38.244 205.707 38.564V42.68L208.899 38.396C208.963 38.308 209.035 38.236 209.115 38.18C209.203 38.116 209.319 38.084 209.463 38.084C209.759 38.084 209.907 38.256 209.907 38.6V43.604C209.907 43.924 209.759 44.084 209.463 44.084C209.167 44.084 209.019 43.924 209.019 43.604V39.488L205.815 43.772C205.759 43.852 205.687 43.924 205.599 43.988C205.519 44.052 205.407 44.084 205.263 44.084ZM212.271 44.084C211.975 44.084 211.827 43.908 211.827 43.556V38.564C211.827 38.244 211.975 38.084 212.271 38.084C212.567 38.084 212.715 38.244 212.715 38.564V42.68L215.907 38.396C215.971 38.308 216.043 38.236 216.123 38.18C216.211 38.116 216.327 38.084 216.471 38.084C216.767 38.084 216.915 38.256 216.915 38.6V43.604C216.915 43.924 216.767 44.084 216.471 44.084C216.175 44.084 216.027 43.924 216.027 43.604V39.488L212.823 43.772C212.767 43.852 212.695 43.924 212.607 43.988C212.527 44.052 212.415 44.084 212.271 44.084Z" fill="#343434"/>
</svg>
